<svg xmlns="http://www.w3.org/2000/svg" width="24" height="24" fill="none"><path opacity=".28" d="M16.902 16.902a3.92 3.92 0 0 0 .643-.147 5 5 0 0 0 3.21-3.21C21 12.792 21 11.861 21 10s0-2.792-.245-3.545a5 5 0 0 0-3.21-3.21C16.792 3 15.861 3 14 3s-2.792 0-3.545.245a5 5 0 0 0-3.21 3.21 3.922 3.922 0 0 0-.147.643" stroke="#778191" stroke-width="2" stroke-linecap="round" stroke-linejoin="round"/><path d="M10 21c1.861 0 2.792 0 3.545-.245a5 5 0 0 0 3.21-3.21C17 16.792 17 15.861 17 14s0-2.792-.245-3.545a5 5 0 0 0-3.21-3.21C12.792 7 11.861 7 10 7s-2.792 0-3.545.245a5 5 0 0 0-3.21 3.21C3 11.208 3 12.139 3 14s0 2.792.245 3.545a5 5 0 0 0 3.21 3.21C7.208 21 8.139 21 10 21Z" fill="#F1F5FB"/><path d="M7 12h6m-6 4h4m-1 5c-1.861 0-2.792 0-3.545-.245a5 5 0 0 1-3.21-3.21C3 16.792 3 15.861 3 14s0-2.792.245-3.545a5 5 0 0 1 3.21-3.21C7.208 7 8.139 7 10 7s2.792 0 3.545.245a5 5 0 0 1 3.21 3.21C17 11.208 17 12.139 17 14s0 2.792-.245 3.545a5 5 0 0 1-3.21 3.21C12.792 21 11.861 21 10 21Z" stroke="#222B38" stroke-width="2" stroke-linecap="round" stroke-linejoin="round"/></svg>