<svg width="345" height="354" viewBox="0 0 345 359" fill="none" xmlns="http://www.w3.org/2000/svg"><path d="M25.667 307a5.333 5.333 0 1 0 10.666 0 5.333 5.333 0 1 0-10.666 0Zm58.31-76.774-.062-.998.061.998ZM301.666 69a5.333 5.333 0 1 0 10.665.001A5.333 5.333 0 0 0 301.667 69ZM31.947 307.319c5.02-14.902 11.434-33.588 19.97-48.755 8.576-15.236 19.079-26.537 32.12-27.34l-.122-1.996c-14.166.872-25.137 13.068-33.74 28.355-8.643 15.357-15.113 34.221-20.123 49.098l1.896.638Zm52.09-76.095c16.758-1.032 29.573 5.141 43.039 9.549 13.458 4.405 27.322 6.911 45.631-1.97l-.873-1.8c-17.663 8.568-30.941 6.188-44.135 1.869-13.186-4.316-26.531-10.706-43.784-9.644l.123 1.996Zm88.67 7.579c18.485-8.967 22.628-27.281 25.806-43.544 1.606-8.214 2.954-15.856 5.662-21.819 2.675-5.887 6.62-10.011 13.414-11.329l-.381-1.964c-7.595 1.474-11.989 6.162-14.854 12.466-2.83 6.23-4.22 14.161-5.803 22.262-3.199 16.366-7.231 33.647-24.717 42.128l.873 1.8Zm44.882-76.692c14.831-2.878 22.41-13.182 28.095-22.756 2.874-4.841 5.205-9.381 7.79-12.913 2.568-3.511 5.204-5.755 8.53-6.199l-.264-1.982c-4.145.553-7.206 3.344-9.88 7-2.659 3.633-5.116 8.391-7.896 13.073-5.623 9.469-12.811 19.108-26.756 21.813l.381 1.964Zm44.415-41.868c5.522-.736 10.626-3.897 15.264-8.208 4.646-4.318 8.905-9.864 12.737-15.516 3.832-5.651 7.271-11.463 10.244-16.297 3.01-4.895 5.482-8.683 7.431-10.488l-1.36-1.468c-2.194 2.034-4.817 6.098-7.775 10.908-2.996 4.872-6.396 10.62-10.195 16.223-3.798 5.602-7.959 11.006-12.443 15.173-4.491 4.173-9.225 7.032-14.167 7.691l.264 1.982Z" fill="#0062F5"/><g filter="url(#a)"><path d="M3 326a8 8 0 0 1 8-8h39a8 8 0 0 1 8 8v20a8 8 0 0 1-8 8H11a8 8 0 0 1-8-8v-20Z" fill="#fff"/><path d="M11 317.5a8.5 8.5 0 0 0-8.5 8.5v20a8.5 8.5 0 0 0 8.5 8.5h39a8.5 8.5 0 0 0 8.5-8.5v-20a8.5 8.5 0 0 0-8.5-8.5H11Z" stroke="#000" stroke-opacity=".08"/><path d="M24.337 330.818V341h-1.412l-5.176-7.467h-.094V341h-1.536v-10.182h1.422l5.18 7.477h.094v-7.477h1.522Zm5.338 10.336c-.716 0-1.34-.164-1.874-.492a3.318 3.318 0 0 1-1.243-1.377c-.295-.59-.443-1.28-.443-2.068 0-.793.148-1.485.443-2.079a3.32 3.32 0 0 1 1.243-1.382c.533-.328 1.158-.492 1.874-.492.716 0 1.34.164 1.874.492a3.32 3.32 0 0 1 1.243 1.382c.295.594.443 1.286.443 2.079 0 .788-.148 1.478-.443 2.068a3.318 3.318 0 0 1-1.243 1.377c-.533.328-1.158.492-1.874.492Zm.005-1.248c.464 0 .848-.122 1.153-.368.305-.245.53-.571.676-.979.15-.408.224-.857.224-1.347a3.88 3.88 0 0 0-.224-1.343 2.188 2.188 0 0 0-.676-.989c-.305-.249-.69-.373-1.153-.373-.468 0-.855.124-1.163.373a2.223 2.223 0 0 0-.682.989 3.963 3.963 0 0 0-.218 1.343c0 .49.073.939.218 1.347.15.408.377.734.681.979.309.246.697.368 1.164.368ZM36.317 341l-2.247-7.636h1.536l1.496 5.608h.075l1.501-5.608h1.537l1.491 5.583h.075l1.486-5.583h1.536L42.561 341h-1.516l-1.551-5.513h-.115L37.83 341h-1.512Z" fill="#000"/></g><path d="M276 8a8 8 0 0 1 8-8h53a8 8 0 0 1 8 8v41a8 8 0 0 1-8 8h-53a8 8 0 0 1-8-8V8Z" fill="url(#b)"/><path d="M294.5 15.746c-.04-.4-.21-.712-.512-.934-.302-.222-.711-.333-1.228-.333-.351 0-.648.05-.89.149-.242.096-.427.23-.557.402a.97.97 0 0 0-.189.587.842.842 0 0 0 .115.477c.086.136.204.254.353.353.149.097.321.181.517.254.195.07.404.13.626.179l.915.219c.444.1.852.232 1.223.397.371.166.693.37.965.612.271.242.482.527.631.855.152.328.23.704.234 1.129-.004.623-.163 1.163-.478 1.62-.311.454-.762.807-1.352 1.06-.587.248-1.294.372-2.123.372-.822 0-1.538-.126-2.148-.378-.606-.252-1.08-.624-1.421-1.118-.338-.497-.516-1.112-.532-1.845h2.083c.023.342.121.627.293.855.176.226.409.396.701.512.295.113.628.17.999.17.365 0 .681-.053.95-.16.272-.106.482-.253.631-.442.149-.189.224-.406.224-.651a.846.846 0 0 0-.204-.577c-.132-.156-.328-.288-.586-.398a6.004 6.004 0 0 0-.94-.298l-1.109-.279c-.858-.208-1.536-.535-2.033-.979-.497-.444-.744-1.042-.741-1.795-.003-.616.161-1.155.492-1.615.335-.461.794-.82 1.377-1.08.584-.258 1.247-.387 1.989-.387.756 0 1.415.13 1.979.388.566.258 1.007.618 1.322 1.079.315.46.477.994.487 1.6H294.5Zm7.091 7.403c-.786 0-1.462-.159-2.029-.477a3.27 3.27 0 0 1-1.302-1.362c-.305-.59-.457-1.288-.457-2.093 0-.786.152-1.475.457-2.069a3.38 3.38 0 0 1 1.288-1.387c.556-.331 1.209-.497 1.958-.497.504 0 .973.081 1.407.244.438.159.819.4 1.144.72.328.322.583.726.765 1.214.183.484.274 1.05.274 1.7v.582h-6.448V18.41h4.454c0-.305-.066-.575-.199-.81a1.42 1.42 0 0 0-.551-.552 1.577 1.577 0 0 0-.811-.204 1.63 1.63 0 0 0-.855.224 1.577 1.577 0 0 0-.577.591 1.67 1.67 0 0 0-.213.82v1.249c0 .378.069.704.208.98.143.274.343.486.602.636.258.149.565.223.92.223.235 0 .45-.033.646-.1.196-.066.363-.165.502-.297a1.3 1.3 0 0 0 .318-.488l1.959.13c-.099.47-.303.881-.611 1.233-.305.348-.7.62-1.184.815-.48.192-1.035.288-1.665.288Zm4.887 2.715v-10.5h2.088v1.282h.095c.092-.205.227-.414.402-.626.179-.215.411-.394.696-.537.289-.146.647-.219 1.074-.219.557 0 1.071.146 1.541.438.471.288.847.724 1.129 1.307.282.58.422 1.308.422 2.183 0 .852-.137 1.57-.412 2.157-.272.584-.643 1.026-1.114 1.328a2.858 2.858 0 0 1-1.571.447c-.411 0-.761-.068-1.049-.203a2.167 2.167 0 0 1-.701-.513 2.603 2.603 0 0 1-.417-.631h-.065v4.087h-2.118Zm2.073-6.682c0 .454.063.85.189 1.188.126.338.308.602.547.79.239.186.529.279.87.279.345 0 .636-.095.875-.284.239-.192.419-.457.542-.795.126-.341.189-.734.189-1.178 0-.441-.062-.829-.184-1.163a1.733 1.733 0 0 0-.542-.786c-.239-.189-.532-.283-.88-.283-.345 0-.636.09-.875.273-.235.182-.416.44-.542.776-.126.334-.189.729-.189 1.183Zm14.436-6.364V23h-2.152v-8.139h-.06l-2.332 1.462v-1.909l2.521-1.596h2.023ZM325.81 23l4.221-8.352v-.07h-4.917v-1.76h7.144v1.785L328.032 23h-2.222Zm-29.892 20v-1.142l3.03-2.97c.29-.293.531-.553.724-.78.194-.227.338-.447.435-.66.097-.214.145-.44.145-.682 0-.276-.063-.512-.188-.708a1.244 1.244 0 0 0-.515-.46 1.667 1.667 0 0 0-.746-.162c-.287 0-.538.06-.754.18a1.23 1.23 0 0 0-.503.498 1.608 1.608 0 0 0-.175.77h-1.504c0-.553.126-1.035.379-1.444.253-.409.601-.725 1.044-.95.446-.224.958-.337 1.534-.337.586 0 1.1.11 1.543.328.443.22.787.519 1.031.9.247.38.371.815.371 1.304 0 .326-.063.647-.188.963-.125.315-.345.664-.66 1.048-.313.384-.751.848-1.317 1.394l-1.504 1.53v.059h3.801V43h-5.983Zm10.679.166c-.702 0-1.304-.177-1.807-.532-.5-.358-.885-.874-1.155-1.547-.267-.677-.4-1.49-.4-2.442.003-.952.138-1.762.405-2.43.27-.67.655-1.18 1.155-1.533.502-.352 1.103-.529 1.802-.529.699 0 1.3.177 1.803.529.503.352.887.863 1.155 1.534.269.67.404 1.48.404 2.429 0 .954-.135 1.77-.404 2.446-.268.673-.652 1.187-1.155 1.542-.5.356-1.101.533-1.803.533Zm0-1.334c.546 0 .976-.268 1.291-.805.318-.54.478-1.334.478-2.382 0-.693-.073-1.276-.218-1.747-.145-.472-.349-.827-.613-1.066a1.346 1.346 0 0 0-.938-.362c-.542 0-.971.27-1.287.81-.315.537-.474 1.325-.477 2.365-.003.696.067 1.281.209 1.756.145.474.349.832.613 1.073.265.24.578.358.942.358ZM311.375 43v-1.142l3.03-2.97c.29-.293.531-.553.724-.78a2.82 2.82 0 0 0 .435-.66c.097-.214.145-.44.145-.682 0-.276-.063-.512-.188-.708a1.244 1.244 0 0 0-.515-.46 1.664 1.664 0 0 0-.746-.162c-.287 0-.538.06-.754.18a1.23 1.23 0 0 0-.503.498 1.608 1.608 0 0 0-.175.77h-1.504c0-.553.126-1.035.379-1.444.253-.409.601-.725 1.044-.95.446-.224.958-.337 1.534-.337.586 0 1.1.11 1.543.328.443.22.787.519 1.031.9.247.38.371.815.371 1.304 0 .326-.062.647-.187.963-.125.315-.346.664-.661 1.048-.312.384-.751.848-1.317 1.394l-1.504 1.53v.059h3.801V43h-5.983Zm7.108-1.62v-1.256l3.703-5.851h1.049v1.79h-.64l-2.493 3.95v.068h5.169v1.3h-6.788Zm4.163 1.62v-2.003l.018-.562v-6.162h1.491V43h-1.509Z" fill="#fff"/><path fill="#000" fill-opacity=".08" d="M3 305h342v1H3zM3 258h342v1H3zM3 211h342v1H3zM3 164h342v1H3zM3 117h342v1H3zM3 70h342v1H3z"/><defs><linearGradient id="b" x1="345" y1="0" x2="276" y2="57" gradientUnits="userSpaceOnUse"><stop stop-color="#FF4D78"/><stop offset="1" stop-color="#FF9600"/></linearGradient><filter id="a" x="0" y="317" width="61" height="42" filterUnits="userSpaceOnUse" color-interpolation-filters="sRGB"><feFlood flood-opacity="0" result="BackgroundImageFix"/><feColorMatrix in="SourceAlpha" values="0 0 0 0 0 0 0 0 0 0 0 0 0 0 0 0 0 0 127 0" result="hardAlpha"/><feMorphology radius="2" in="SourceAlpha" result="effect1_dropShadow_61_6642"/><feOffset dy="2"/><feGaussianBlur stdDeviation="2"/><feColorMatrix values="0 0 0 0 0 0 0 0 0 0 0 0 0 0 0 0 0 0 0.12 0"/><feBlend in2="BackgroundImageFix" result="effect1_dropShadow_61_6642"/><feBlend in="SourceGraphic" in2="effect1_dropShadow_61_6642" result="shape"/></filter></defs></svg>