<svg width="390" height="47" fill="none" xmlns="http://www.w3.org/2000/svg"><path fill-rule="evenodd" clip-rule="evenodd" d="M84 0h6v6a6 6 0 0 0-6-6Z" fill="#000"/><path d="M90 0h210v11c0 11.598-9.402 21-21 21H111c-11.598 0-21-9.402-21-21V0Z" fill="#000"/><path fill-rule="evenodd" clip-rule="evenodd" d="M306 0h-6v6a6 6 0 0 1 6-6ZM325 20.667h-1a1 1 0 0 0-1 1v8.666a1 1 0 0 0 1 1h1a1 1 0 0 0 1-1v-8.666a1 1 0 0 0-1-1ZM319.333 23h1a1 1 0 0 1 1 1v6.333a1 1 0 0 1-1 1h-1a1 1 0 0 1-1-1V24a1 1 0 0 1 1-1Zm-3.666 2.333h-1a1 1 0 0 0-1 1v4a1 1 0 0 0 1 1h1a1 1 0 0 0 1-1v-4a1 1 0 0 0-1-1Zm-4.667 2h-1a1 1 0 0 0-1 1v2a1 1 0 0 0 1 1h1a1 1 0 0 0 1-1v-2a1 1 0 0 0-1-1ZM338.637 22.795c2.215 0 4.347.851 5.953 2.378a.308.308 0 0 0 .433-.003l1.156-1.167a.32.32 0 0 0-.003-.456 10.897 10.897 0 0 0-15.08 0 .324.324 0 0 0-.003.456l1.157 1.167c.119.12.312.121.433.003a8.64 8.64 0 0 1 5.954-2.378Zm0 3.795c1.217 0 2.391.453 3.294 1.27a.31.31 0 0 0 .433-.006l1.155-1.166a.325.325 0 0 0-.005-.46 7.159 7.159 0 0 0-9.752 0 .324.324 0 0 0-.005.46l1.155 1.166a.31.31 0 0 0 .433.006 4.908 4.908 0 0 1 3.292-1.27Zm2.313 2.554a.316.316 0 0 1-.094.23l-1.998 2.016a.31.31 0 0 1-.443 0l-1.998-2.015a.315.315 0 0 1 .01-.457 3.421 3.421 0 0 1 4.419 0c.065.058.102.14.104.226Z" fill="#000"/><path opacity=".4" fill-rule="evenodd" clip-rule="evenodd" d="M353.939 21.333h16.667c.92 0 1.666.747 1.666 1.667v6c0 .92-.746 1.667-1.666 1.667h-16.667c-.92 0-1.667-.747-1.667-1.667v-6c0-.92.747-1.667 1.667-1.667ZM351.272 23a2.667 2.667 0 0 1 2.667-2.667h16.667A2.666 2.666 0 0 1 373.272 23v6a2.666 2.666 0 0 1-2.666 2.667h-16.667A2.667 2.667 0 0 1 351.272 29v-6Zm24.328 3a2.17 2.17 0 0 1-1.328 2v-4a2.17 2.17 0 0 1 1.328 2Z" fill="#000"/><rect x="353.272" y="22.333" width="18" height="7.333" rx="1.333" fill="#000"/><path d="M35.664 22C33.524 22 32 23.463 32 25.466v.014c0 1.872 1.326 3.253 3.22 3.253 1.353 0 2.215-.69 2.577-1.47h.137c0 .076-.007.151-.007.226-.075 1.887-.739 3.418-2.304 3.418-.868 0-1.476-.45-1.736-1.141l-.02-.069H32.13l.014.076c.314 1.51 1.668 2.583 3.479 2.583 2.482 0 3.979-1.968 3.979-5.29v-.014c0-3.555-1.832-5.052-3.938-5.052Zm-.007 5.38c-1.12 0-1.934-.82-1.934-1.962v-.014c0-1.1.868-1.968 1.955-1.968 1.094 0 1.948.881 1.948 2.01v.013c0 1.114-.854 1.92-1.969 1.92ZM42.425 25.719c.629 0 1.087-.479 1.087-1.08 0-.609-.458-1.08-1.087-1.08-.622 0-1.087.471-1.087 1.08 0 .601.465 1.08 1.087 1.08Zm0 5.072c.629 0 1.087-.472 1.087-1.08 0-.608-.458-1.08-1.087-1.08-.622 0-1.087.471-1.087 1.08 0 .608.465 1.08 1.087 1.08ZM50.034 32.11h1.688v-1.893h1.326V28.76h-1.326v-6.515h-2.495a131.36 131.36 0 0 0-4.02 6.528v1.443h4.827v1.893Zm-3.186-3.308v-.103c.957-1.675 2.099-3.5 3.11-5.045h.103v5.148h-3.213ZM56.856 32.11h1.764v-9.864h-1.757l-2.577 1.812v1.66l2.454-1.736h.116v8.128Z" fill="#000"/></svg>