<svg width="12" height="12" viewBox="0 0 10 11" fill="none" xmlns="http://www.w3.org/2000/svg">
<path d="M4.54003 1.07926C4.71276 0.673971 5.28724 0.673971 5.45997 1.07926L6.49431 3.50621C6.56659 3.67581 6.72634 3.79187 6.90997 3.80821L9.53776 4.04195C9.97659 4.08099 10.1541 4.62735 9.82204 4.91686L7.8335 6.65054C7.69454 6.7717 7.63352 6.95949 7.67473 7.13919L8.26446 9.7106C8.36294 10.14 7.89818 10.4777 7.52022 10.2513L5.2569 8.89585C5.09873 8.80113 4.90127 8.80113 4.7431 8.89585L2.47978 10.2513C2.10182 10.4777 1.63706 10.14 1.73554 9.7106L2.32527 7.13919C2.36648 6.95949 2.30546 6.7717 2.1665 6.65054L0.17796 4.91686C-0.154116 4.62735 0.0234078 4.08099 0.462237 4.04195L3.09003 3.80821C3.27366 3.79187 3.43341 3.67581 3.50569 3.50621L4.54003 1.07926Z" fill="#FF7A00"/>
</svg>
