<svg xmlns="http://www.w3.org/2000/svg" width="24" height="24" viewBox="0 0 24 24" fill="none">
  <path opacity="0.28" d="M16.9018 16.9018C17.1375 16.8669 17.3474 16.8195 17.545 16.7553C19.0672 16.2607 20.2607 15.0673 20.7552 13.5451C21 12.7919 21 11.8613 21 10C21 8.13872 21 7.20808 20.7552 6.45492C20.2607 4.93273 19.0672 3.73931 17.545 3.24472C16.7919 3 15.8612 3 14 3C12.1387 3 11.208 3 10.4549 3.24472C8.93268 3.73931 7.73926 4.93273 7.24468 6.45492C7.18045 6.65258 7.13308 6.86246 7.09814 7.09819" stroke="#778191" stroke-width="2" stroke-linecap="round" stroke-linejoin="round"/>
  <path d="M9.99998 21H10H10C11.8613 21 12.7919 21 13.5451 20.7553C15.0673 20.2607 16.2607 19.0673 16.7553 17.5451C17 16.7919 17 15.8613 17 14C17 12.1387 17 11.2081 16.7553 10.4549C16.2607 8.93273 15.0673 7.73931 13.5451 7.24472C12.7919 7 11.8613 7 10 7C8.13872 7 7.20808 7 6.45492 7.24472C4.93273 7.73931 3.73931 8.93273 3.24472 10.4549C3 11.2081 3 12.1387 3 14C3 15.8613 3 16.7919 3.24472 17.5451C3.73931 19.0673 4.93273 20.2607 6.45492 20.7553C7.20808 21 8.13871 21 9.99998 21Z" fill="#F1F5FB"/>
  <path d="M7 12H13M7 16H11M10 21C8.13872 21 7.20808 21 6.45492 20.7553C4.93273 20.2607 3.73931 19.0673 3.24472 17.5451C3 16.7919 3 15.8613 3 14C3 12.1387 3 11.2081 3.24472 10.4549C3.73931 8.93273 4.93273 7.73931 6.45492 7.24472C7.20808 7 8.13872 7 10 7C11.8613 7 12.7919 7 13.5451 7.24472C15.0673 7.73931 16.2607 8.93273 16.7553 10.4549C17 11.2081 17 12.1387 17 14C17 15.8613 17 16.7919 16.7553 17.5451C16.2607 19.0673 15.0673 20.2607 13.5451 20.7553C12.7919 21 11.8613 21 10 21Z" stroke="#222B38" stroke-width="2" stroke-linecap="round" stroke-linejoin="round"/>
</svg>